<svg width="371" height="65" viewBox="0 0 371 65" fill="none" xmlns="http://www.w3.org/2000/svg">
<path d="M68.9368 54.4335C66.5865 54.4335 64.4854 53.8637 62.6337 52.7241C60.7819 51.549 59.3041 49.9643 58.2001 47.9701C57.1318 45.9759 56.5977 43.7324 56.5977 41.2397C56.5977 38.7469 57.1318 36.5035 58.2001 34.5093C59.3041 32.515 60.7819 30.9304 62.6337 29.7552C64.4854 28.5801 66.5865 27.9925 68.9368 27.9925C70.8241 27.9925 72.5335 28.402 74.0647 29.2211C75.596 30.0045 76.8246 31.1084 77.7504 32.5329C78.7119 33.9217 79.2461 35.542 79.3529 37.3937V45.0322C79.2461 46.8484 78.7297 48.4687 77.8039 49.8931C76.878 51.3175 75.6494 52.4393 74.1181 53.2583C72.5869 54.0417 70.8598 54.4335 68.9368 54.4335ZM69.738 49.8931C71.3405 49.8931 72.7293 49.5192 73.9045 48.7713C75.1152 48.0235 76.0589 47.0086 76.7355 45.7266C77.4121 44.409 77.7504 42.9134 77.7504 41.2397C77.7504 39.4948 77.3943 37.9813 76.6821 36.6993C76.0055 35.4173 75.0618 34.4024 73.8511 33.6546C72.6759 32.9068 71.2871 32.5329 69.6846 32.5329C68.0821 32.5329 66.6755 32.9068 65.4647 33.6546C64.254 34.4024 63.2925 35.4351 62.5803 36.7527C61.9037 38.0347 61.5654 39.5126 61.5654 41.1863C61.5654 42.8956 61.9037 44.409 62.5803 45.7266C63.2925 47.0086 64.254 48.0235 65.4647 48.7713C66.7111 49.5192 68.1355 49.8931 69.738 49.8931ZM82.2908 53.8993H77.4299V47.062L78.338 40.8658L77.4299 34.7229V15.7602H82.2908V53.8993ZM97.6229 54.113L86.6192 28.5266H91.9608L100.133 48.5577H98.4241L107.024 28.5266H112.366L100.507 54.113H97.6229ZM90.3583 64.5291L97.8366 49.1987L100.507 54.113L95.6999 64.5291H90.3583ZM123.855 54.4335C122.431 54.4335 121.078 54.2554 119.796 53.8993C118.549 53.5076 117.392 52.9734 116.324 52.2968C115.255 51.5846 114.329 50.7477 113.546 49.7863L116.644 46.6881C117.57 47.8277 118.638 48.6823 119.849 49.2521C121.06 49.7863 122.413 50.0533 123.909 50.0533C125.404 50.0533 126.562 49.8041 127.381 49.3055C128.2 48.7713 128.609 48.0413 128.609 47.1154C128.609 46.1896 128.271 45.4774 127.594 44.9788C126.953 44.4446 126.116 44.0173 125.084 43.6968C124.051 43.3407 122.947 43.0024 121.772 42.6819C120.632 42.3258 119.546 41.8807 118.514 41.3465C117.481 40.8123 116.626 40.0823 115.95 39.1564C115.309 38.2306 114.988 37.002 114.988 35.4707C114.988 33.9395 115.362 32.6219 116.11 31.5179C116.858 30.3784 117.89 29.5059 119.208 28.9006C120.561 28.2952 122.181 27.9925 124.069 27.9925C126.063 27.9925 127.826 28.3486 129.357 29.0608C130.924 29.7374 132.206 30.7701 133.203 32.1589L130.105 35.2571C129.393 34.3312 128.502 33.619 127.434 33.1204C126.401 32.6219 125.226 32.3726 123.909 32.3726C122.52 32.3726 121.451 32.6219 120.704 33.1204C119.991 33.5834 119.635 34.2422 119.635 35.0968C119.635 35.9515 119.956 36.6103 120.597 37.0732C121.238 37.5362 122.075 37.9279 123.107 38.2484C124.176 38.5689 125.28 38.9072 126.419 39.2633C127.559 39.5838 128.645 40.0289 129.678 40.5987C130.71 41.1685 131.547 41.9341 132.188 42.8956C132.865 43.8571 133.203 45.1212 133.203 46.6881C133.203 49.074 132.348 50.9614 130.639 52.3502C128.965 53.739 126.704 54.4335 123.855 54.4335ZM142.484 53.8993V17.8968H147.292V53.8993H142.484ZM136.235 32.9068V28.5266H153.542V32.9068H136.235ZM158.304 53.8993V28.5266H163.112V53.8993H158.304ZM160.708 23.4521C159.818 23.4521 159.088 23.1672 158.518 22.5975C157.948 21.9921 157.663 21.2443 157.663 20.354C157.663 19.4993 157.948 18.7871 158.518 18.2173C159.088 17.612 159.818 17.3093 160.708 17.3093C161.598 17.3093 162.328 17.612 162.898 18.2173C163.468 18.7871 163.753 19.4993 163.753 20.354C163.753 21.2443 163.468 21.9921 162.898 22.5975C162.328 23.1672 161.598 23.4521 160.708 23.4521ZM188.144 53.8993V39.103C188.144 37.1801 187.539 35.5954 186.328 34.349C185.117 33.1026 183.551 32.4794 181.628 32.4794C180.346 32.4794 179.206 32.7643 178.209 33.3341C177.212 33.9039 176.428 34.6873 175.859 35.6844C175.289 36.6815 175.004 37.821 175.004 39.103L173.028 37.9813C173.028 36.0583 173.455 34.349 174.31 32.8534C175.164 31.3577 176.357 30.1825 177.888 29.3279C179.42 28.4376 181.147 27.9925 183.07 27.9925C184.993 27.9925 186.684 28.4732 188.144 29.4347C189.64 30.3962 190.815 31.6604 191.67 33.2273C192.525 34.7585 192.952 36.3966 192.952 38.1415V53.8993H188.144ZM170.197 53.8993V28.5266H175.004V53.8993H170.197ZM211.052 54.4335C208.559 54.4335 206.298 53.8459 204.268 52.6707C202.274 51.4956 200.689 49.9109 199.514 47.9167C198.375 45.8869 197.805 43.6434 197.805 41.1863C197.805 38.6935 198.375 36.45 199.514 34.4558C200.689 32.4616 202.274 30.8948 204.268 29.7552C206.298 28.5801 208.559 27.9925 211.052 27.9925C213.011 27.9925 214.827 28.3664 216.5 29.1142C218.174 29.8264 219.616 30.877 220.827 32.2658L217.622 35.4707C216.839 34.5449 215.877 33.8505 214.738 33.3875C213.634 32.889 212.405 32.6397 211.052 32.6397C209.449 32.6397 208.025 33.0136 206.779 33.7614C205.532 34.4736 204.553 35.4707 203.841 36.7527C203.129 38.0347 202.772 39.5126 202.772 41.1863C202.772 42.86 203.129 44.3378 203.841 45.6198C204.553 46.9018 205.532 47.9167 206.779 48.6645C208.025 49.4123 209.449 49.7863 211.052 49.7863C212.405 49.7863 213.634 49.5548 214.738 49.0918C215.877 48.5933 216.857 47.8811 217.676 46.9552L220.827 50.1602C219.652 51.5134 218.21 52.5639 216.5 53.3117C214.827 54.0595 213.011 54.4335 211.052 54.4335ZM229.181 53.8993V17.8968H233.989V53.8993H229.181ZM222.932 32.9068V28.5266H240.238V32.9068H222.932ZM245.001 53.8993V28.5266H249.809V53.8993H245.001ZM247.405 23.4521C246.515 23.4521 245.785 23.1672 245.215 22.5975C244.645 21.9921 244.36 21.2443 244.36 20.354C244.36 19.4993 244.645 18.7871 245.215 18.2173C245.785 17.612 246.515 17.3093 247.405 17.3093C248.295 17.3093 249.025 17.612 249.595 18.2173C250.165 18.7871 250.45 19.4993 250.45 20.354C250.45 21.2443 250.165 21.9921 249.595 22.5975C249.025 23.1672 248.295 23.4521 247.405 23.4521ZM268.485 54.4335C265.992 54.4335 263.748 53.8459 261.754 52.6707C259.76 51.4956 258.175 49.9109 257 47.9167C255.825 45.8869 255.237 43.6256 255.237 41.1328C255.237 38.6757 255.825 36.4678 257 34.5093C258.175 32.515 259.76 30.9304 261.754 29.7552C263.748 28.5801 265.992 27.9925 268.485 27.9925C270.942 27.9925 273.168 28.5801 275.162 29.7552C277.192 30.8948 278.794 32.4616 279.969 34.4558C281.144 36.45 281.732 38.6757 281.732 41.1328C281.732 43.6256 281.144 45.8869 279.969 47.9167C278.794 49.9109 277.192 51.4956 275.162 52.6707C273.168 53.8459 270.942 54.4335 268.485 54.4335ZM268.485 49.7863C270.087 49.7863 271.512 49.4123 272.758 48.6645C274.004 47.9167 274.984 46.9018 275.696 45.6198C276.408 44.3022 276.764 42.8066 276.764 41.1328C276.764 39.4948 276.39 38.0347 275.642 36.7527C274.93 35.4707 273.951 34.4736 272.705 33.7614C271.494 33.0136 270.087 32.6397 268.485 32.6397C266.882 32.6397 265.458 33.0136 264.211 33.7614C262.965 34.4736 261.986 35.4707 261.274 36.7527C260.561 38.0347 260.205 39.4948 260.205 41.1328C260.205 42.8066 260.561 44.3022 261.274 45.6198C261.986 46.9018 262.965 47.9167 264.211 48.6645C265.458 49.4123 266.882 49.7863 268.485 49.7863ZM305.096 53.8993V39.103C305.096 37.1801 304.491 35.5954 303.28 34.349C302.07 33.1026 300.503 32.4794 298.58 32.4794C297.298 32.4794 296.158 32.7643 295.161 33.3341C294.164 33.9039 293.38 34.6873 292.811 35.6844C292.241 36.6815 291.956 37.821 291.956 39.103L289.98 37.9813C289.98 36.0583 290.407 34.349 291.262 32.8534C292.116 31.3577 293.309 30.1825 294.841 29.3279C296.372 28.4376 298.099 27.9925 300.022 27.9925C301.945 27.9925 303.636 28.4732 305.096 29.4347C306.592 30.3962 307.767 31.6604 308.622 33.2273C309.477 34.7585 309.904 36.3966 309.904 38.1415V53.8993H305.096ZM287.149 53.8993V28.5266H291.956V53.8993H287.149ZM320.633 54.4335C319.635 54.4335 318.799 54.0952 318.122 53.4185C317.481 52.7063 317.161 51.8695 317.161 50.908C317.161 49.9109 317.481 49.0918 318.122 48.4509C318.799 47.7742 319.635 47.4359 320.633 47.4359C321.63 47.4359 322.449 47.7742 323.09 48.4509C323.766 49.0918 324.105 49.9109 324.105 50.908C324.105 51.8695 323.766 52.7063 323.09 53.4185C322.449 54.0952 321.63 54.4335 320.633 54.4335ZM331.959 53.8993V28.5266H336.766V53.8993H331.959ZM334.363 23.4521C333.472 23.4521 332.742 23.1672 332.173 22.5975C331.603 21.9921 331.318 21.2443 331.318 20.354C331.318 19.4993 331.603 18.7871 332.173 18.2173C332.742 17.612 333.472 17.3093 334.363 17.3093C335.253 17.3093 335.983 17.612 336.553 18.2173C337.122 18.7871 337.407 19.4993 337.407 20.354C337.407 21.2443 337.122 21.9921 336.553 22.5975C335.983 23.1672 335.253 23.4521 334.363 23.4521ZM361.799 53.8993V39.103C361.799 37.1801 361.193 35.5954 359.983 34.349C358.772 33.1026 357.205 32.4794 355.282 32.4794C354 32.4794 352.861 32.7643 351.863 33.3341C350.866 33.9039 350.083 34.6873 349.513 35.6844C348.943 36.6815 348.659 37.821 348.659 39.103L346.682 37.9813C346.682 36.0583 347.109 34.349 347.964 32.8534C348.819 31.3577 350.012 30.1825 351.543 29.3279C353.074 28.4376 354.801 27.9925 356.724 27.9925C358.647 27.9925 360.339 28.4732 361.799 29.4347C363.295 30.3962 364.47 31.6604 365.324 33.2273C366.179 34.7585 366.606 36.3966 366.606 38.1415V53.8993H361.799ZM343.851 53.8993V28.5266H348.659V53.8993H343.851Z" fill="white"/>
<path d="M68.9368 54.8496C66.5865 54.8496 64.4854 54.2799 62.6337 53.1403C60.7819 51.9652 59.3041 50.3805 58.2001 48.3863C57.1318 46.3921 56.5977 44.1486 56.5977 41.6559C56.5977 39.1631 57.1318 36.9196 58.2001 34.9254C59.3041 32.9312 60.7819 31.3466 62.6337 30.1714C64.4854 28.9963 66.5865 28.4087 68.9368 28.4087C70.8241 28.4087 72.5335 28.8182 74.0647 29.6372C75.596 30.4207 76.8246 31.5246 77.7504 32.949C78.7119 34.3379 79.2461 35.9582 79.3529 37.8099V45.4484C79.2461 47.2646 78.7297 48.8848 77.8038 50.3093C76.878 51.7337 75.6494 52.8554 74.1181 53.6745C72.5869 54.4579 70.8598 54.8496 68.9368 54.8496ZM69.738 50.3093C71.3405 50.3093 72.7293 49.9354 73.9045 49.1875C75.1152 48.4397 76.0589 47.4248 76.7355 46.1428C77.4121 44.8252 77.7504 43.3296 77.7504 41.6559C77.7504 39.9109 77.3943 38.3975 76.6821 37.1155C76.0055 35.8335 75.0618 34.8186 73.8511 34.0708C72.6759 33.323 71.2871 32.949 69.6846 32.949C68.0821 32.949 66.6755 33.323 65.4647 34.0708C64.254 34.8186 63.2925 35.8513 62.5803 37.1689C61.9037 38.4509 61.5654 39.9287 61.5654 41.6025C61.5654 43.3118 61.9037 44.8252 62.5803 46.1428C63.2925 47.4248 64.254 48.4397 65.4647 49.1875C66.7111 49.9354 68.1355 50.3093 69.738 50.3093ZM82.2908 54.3155H77.4299V47.4782L78.338 41.282L77.4299 35.1391V16.1764H82.2908V54.3155Z" fill="white"/>
<path d="M97.6229 54.5291L86.6192 28.9428H91.9608L100.133 48.9739H98.4241L107.024 28.9428H112.366L100.507 54.5291H97.6229ZM90.3583 64.9453L97.8366 49.6149L100.507 54.5291L95.6999 64.9453H90.3583Z" fill="white"/>
<path d="M123.855 54.8496C122.431 54.8496 121.078 54.6716 119.796 54.3155C118.549 53.9238 117.392 53.3896 116.324 52.713C115.255 52.0008 114.329 51.1639 113.546 50.2024L116.644 47.1043C117.57 48.2439 118.638 49.0985 119.849 49.6683C121.06 50.2024 122.413 50.4695 123.909 50.4695C125.404 50.4695 126.562 50.2203 127.381 49.7217C128.2 49.1875 128.609 48.4575 128.609 47.5316C128.609 46.6058 128.271 45.8935 127.594 45.395C126.953 44.8608 126.116 44.4335 125.084 44.113C124.051 43.7569 122.947 43.4186 121.772 43.0981C120.632 42.742 119.546 42.2969 118.514 41.7627C117.481 41.2285 116.626 40.4985 115.95 39.5726C115.309 38.6468 114.988 37.4182 114.988 35.8869C114.988 34.3557 115.362 33.0381 116.11 31.9341C116.858 30.7946 117.89 29.9221 119.208 29.3168C120.561 28.7114 122.181 28.4087 124.069 28.4087C126.063 28.4087 127.826 28.7648 129.357 29.477C130.924 30.1536 132.206 31.1863 133.203 32.5751L130.105 35.6733C129.393 34.7474 128.502 34.0352 127.434 33.5366C126.401 33.0381 125.226 32.7888 123.909 32.7888C122.52 32.7888 121.451 33.0381 120.704 33.5366C119.991 33.9996 119.635 34.6584 119.635 35.513C119.635 36.3677 119.956 37.0265 120.597 37.4894C121.238 37.9524 122.075 38.3441 123.107 38.6646C124.176 38.9851 125.28 39.3234 126.419 39.6795C127.559 40 128.645 40.4451 129.678 41.0149C130.71 41.5847 131.547 42.3503 132.188 43.3118C132.865 44.2733 133.203 45.5374 133.203 47.1043C133.203 49.4902 132.348 51.3776 130.639 52.7664C128.965 54.1552 126.704 54.8496 123.855 54.8496Z" fill="white"/>
<path d="M142.484 54.3155V18.313H147.292V54.3155H142.484ZM136.235 33.323V28.9428H153.542V33.323H136.235Z" fill="white"/>
<path d="M158.304 54.3155V28.9428H163.112V54.3155H158.304ZM160.708 23.8683C159.818 23.8683 159.088 23.5834 158.518 23.0137C157.948 22.4083 157.663 21.6604 157.663 20.7702C157.663 19.9155 157.948 19.2033 158.518 18.6335C159.088 18.0281 159.818 17.7255 160.708 17.7255C161.598 17.7255 162.328 18.0281 162.898 18.6335C163.468 19.2033 163.753 19.9155 163.753 20.7702C163.753 21.6604 163.468 22.4083 162.898 23.0137C162.328 23.5834 161.598 23.8683 160.708 23.8683Z" fill="white"/>
<path d="M188.144 54.3155V39.5192C188.144 37.5962 187.539 36.0116 186.328 34.7652C185.117 33.5188 183.551 32.8956 181.628 32.8956C180.346 32.8956 179.206 33.1805 178.209 33.7503C177.212 34.3201 176.428 35.1035 175.859 36.1006C175.289 37.0977 175.004 38.2372 175.004 39.5192L173.028 38.3975C173.028 36.4745 173.455 34.7652 174.31 33.2695C175.164 31.7739 176.357 30.5987 177.889 29.7441C179.42 28.8538 181.147 28.4087 183.07 28.4087C184.993 28.4087 186.684 28.8894 188.144 29.8509C189.64 30.8124 190.815 32.0766 191.67 33.6435C192.525 35.1747 192.952 36.8128 192.952 38.5577V54.3155H188.144ZM170.197 54.3155V28.9428H175.004V54.3155H170.197Z" fill="white"/>
<path d="M211.052 54.8496C208.559 54.8496 206.298 54.2621 204.268 53.0869C202.274 51.9118 200.689 50.3271 199.514 48.3329C198.375 46.3031 197.805 44.0596 197.805 41.6025C197.805 39.1097 198.375 36.8662 199.514 34.872C200.689 32.8778 202.274 31.311 204.268 30.1714C206.298 28.9963 208.559 28.4087 211.052 28.4087C213.011 28.4087 214.827 28.7826 216.5 29.5304C218.174 30.2426 219.616 31.2931 220.827 32.682L217.622 35.8869C216.839 34.9611 215.877 34.2666 214.738 33.8037C213.634 33.3052 212.405 33.0559 211.052 33.0559C209.449 33.0559 208.025 33.4298 206.779 34.1776C205.532 34.8898 204.553 35.8869 203.841 37.1689C203.129 38.4509 202.772 39.9287 202.772 41.6025C202.772 43.2762 203.129 44.754 203.841 46.036C204.553 47.318 205.532 48.3329 206.779 49.0807C208.025 49.8285 209.449 50.2024 211.052 50.2024C212.405 50.2024 213.634 49.971 214.738 49.508C215.877 49.0095 216.857 48.2973 217.676 47.3714L220.827 50.5764C219.652 51.9296 218.21 52.9801 216.5 53.7279C214.827 54.4757 213.011 54.8496 211.052 54.8496Z" fill="white"/>
<path d="M229.181 54.3155V18.313H233.989V54.3155H229.181ZM222.932 33.323V28.9428H240.238V33.323H222.932Z" fill="white"/>
<path d="M245.001 54.3155V28.9428H249.809V54.3155H245.001ZM247.405 23.8683C246.515 23.8683 245.785 23.5834 245.215 23.0137C244.645 22.4083 244.36 21.6604 244.36 20.7702C244.36 19.9155 244.645 19.2033 245.215 18.6335C245.785 18.0281 246.515 17.7255 247.405 17.7255C248.295 17.7255 249.025 18.0281 249.595 18.6335C250.165 19.2033 250.45 19.9155 250.45 20.7702C250.45 21.6604 250.165 22.4083 249.595 23.0137C249.025 23.5834 248.295 23.8683 247.405 23.8683Z" fill="white"/>
<path d="M268.485 54.8496C265.992 54.8496 263.748 54.2621 261.754 53.0869C259.76 51.9118 258.175 50.3271 257 48.3329C255.825 46.3031 255.238 44.0418 255.238 41.549C255.238 39.0919 255.825 36.884 257 34.9254C258.175 32.9312 259.76 31.3466 261.754 30.1714C263.748 28.9963 265.992 28.4087 268.485 28.4087C270.942 28.4087 273.168 28.9963 275.162 30.1714C277.192 31.311 278.794 32.8778 279.969 34.872C281.144 36.8662 281.732 39.0919 281.732 41.549C281.732 44.0418 281.144 46.3031 279.969 48.3329C278.794 50.3271 277.192 51.9118 275.162 53.0869C273.168 54.2621 270.942 54.8496 268.485 54.8496ZM268.485 50.2024C270.087 50.2024 271.512 49.8285 272.758 49.0807C274.004 48.3329 274.984 47.318 275.696 46.036C276.408 44.7184 276.764 43.2227 276.764 41.549C276.764 39.9109 276.39 38.4509 275.642 37.1689C274.93 35.8869 273.951 34.8898 272.705 34.1776C271.494 33.4298 270.087 33.0559 268.485 33.0559C266.882 33.0559 265.458 33.4298 264.211 34.1776C262.965 34.8898 261.986 35.8869 261.274 37.1689C260.561 38.4509 260.205 39.9109 260.205 41.549C260.205 43.2227 260.561 44.7184 261.274 46.036C261.986 47.318 262.965 48.3329 264.211 49.0807C265.458 49.8285 266.882 50.2024 268.485 50.2024Z" fill="white"/>
<path d="M305.096 54.3155V39.5192C305.096 37.5962 304.491 36.0116 303.28 34.7652C302.07 33.5188 300.503 32.8956 298.58 32.8956C297.298 32.8956 296.158 33.1805 295.161 33.7503C294.164 34.3201 293.381 35.1035 292.811 36.1006C292.241 37.0977 291.956 38.2372 291.956 39.5192L289.98 38.3975C289.98 36.4745 290.407 34.7652 291.262 33.2695C292.116 31.7739 293.309 30.5987 294.841 29.7441C296.372 28.8538 298.099 28.4087 300.022 28.4087C301.945 28.4087 303.636 28.8894 305.096 29.8509C306.592 30.8124 307.767 32.0766 308.622 33.6435C309.477 35.1747 309.904 36.8128 309.904 38.5577V54.3155H305.096ZM287.149 54.3155V28.9428H291.956V54.3155H287.149Z" fill="white"/>
<path d="M320.633 54.8496C319.635 54.8496 318.799 54.5113 318.122 53.8347C317.481 53.1225 317.161 52.2857 317.161 51.3242C317.161 50.3271 317.481 49.508 318.122 48.867C318.799 48.1904 319.635 47.8521 320.633 47.8521C321.63 47.8521 322.449 48.1904 323.09 48.867C323.766 49.508 324.105 50.3271 324.105 51.3242C324.105 52.2857 323.766 53.1225 323.09 53.8347C322.449 54.5113 321.63 54.8496 320.633 54.8496Z" fill="white"/>
<path d="M331.959 54.3155V28.9428H336.766V54.3155H331.959ZM334.363 23.8683C333.472 23.8683 332.742 23.5834 332.173 23.0137C331.603 22.4083 331.318 21.6604 331.318 20.7702C331.318 19.9155 331.603 19.2033 332.173 18.6335C332.742 18.0281 333.472 17.7255 334.363 17.7255C335.253 17.7255 335.983 18.0281 336.553 18.6335C337.122 19.2033 337.407 19.9155 337.407 20.7702C337.407 21.6604 337.122 22.4083 336.553 23.0137C335.983 23.5834 335.253 23.8683 334.363 23.8683Z" fill="white"/>
<path d="M361.799 54.3155V39.5192C361.799 37.5962 361.193 36.0116 359.983 34.7652C358.772 33.5188 357.205 32.8956 355.282 32.8956C354 32.8956 352.861 33.1805 351.863 33.7503C350.866 34.3201 350.083 35.1035 349.513 36.1006C348.943 37.0977 348.659 38.2372 348.659 39.5192L346.682 38.3975C346.682 36.4745 347.109 34.7652 347.964 33.2695C348.819 31.7739 350.012 30.5987 351.543 29.7441C353.074 28.8538 354.801 28.4087 356.724 28.4087C358.647 28.4087 360.339 28.8894 361.799 29.8509C363.295 30.8124 364.47 32.0766 365.324 33.6435C366.179 35.1747 366.606 36.8128 366.606 38.5577V54.3155H361.799ZM343.851 54.3155V28.9428H348.659V54.3155H343.851Z" fill="white"/>
<path d="M0.482449 20.981C1.49442 25.8701 4.31279 30.1977 8.37508 33.1002C12.4374 36.0028 17.4448 37.2667 22.398 36.6398C27.3511 36.0128 31.8857 33.5412 35.0967 29.718C38.3078 25.8949 39.959 21.0015 39.7209 16.0145L35.7582 16.2037C35.9486 20.1933 34.6276 24.108 32.0588 27.1665C29.49 30.225 25.8623 32.2023 21.8998 32.7039C17.9373 33.2054 13.9313 32.1943 10.6815 29.8723C7.43165 27.5502 5.17695 24.0881 4.36738 20.1769L0.482449 20.981Z" fill="white"/>
<path d="M31.8103 54.843C27.0097 53.4688 22.904 50.3347 20.3128 46.0663C17.7216 41.7979 16.8355 36.7093 17.8314 31.8162C18.8273 26.9232 21.6319 22.5858 25.6854 19.6698C29.7389 16.7538 34.743 15.4739 39.6987 16.0854L39.2128 20.0228C35.2482 19.5336 31.2449 20.5576 28.0021 22.8903C24.7594 25.2231 22.5157 28.6931 21.7189 32.6075C20.9222 36.5219 21.6311 40.5928 23.7041 44.0075C25.7771 47.4223 29.0616 49.9295 32.9021 51.0289L31.8103 54.843Z" fill="white"/>
<path d="M0.482422 20.9812C1.49439 25.8702 4.31276 30.1979 8.37505 33.1004C12.4373 36.0029 17.4448 37.2668 22.3979 36.6399C27.3511 36.013 31.8857 33.5413 35.0967 29.7182C38.3077 25.8951 39.959 21.0017 39.7209 16.0147L35.7582 16.2038C35.9486 20.1934 34.6276 24.1081 32.0588 27.1667C29.49 30.2252 25.8623 32.2025 21.8998 32.704C17.9372 33.2056 13.9313 32.1944 10.6815 29.8724C7.43163 27.5504 5.17693 24.0883 4.36735 20.177L0.482422 20.9812Z" fill="white"/>
<path d="M31.8102 54.843C27.0097 53.4688 22.904 50.3347 20.3127 46.0663C17.7215 41.7979 16.8354 36.7093 17.8313 31.8162C18.8272 26.9232 21.6318 22.5858 25.6853 19.6698C29.7388 16.7538 34.7429 15.4739 39.6986 16.0854L39.2127 20.0228C35.2481 19.5336 31.2448 20.5576 28.0021 22.8903C24.7593 25.2231 22.5156 28.6931 21.7189 32.6075C20.9221 36.5219 21.631 40.5928 23.704 44.0075C25.777 47.4223 29.0616 49.9295 32.902 51.0289L31.8102 54.843Z" fill="white"/>
<circle cx="6.81367" cy="48.5117" r="6.33124" fill="white"/>
</svg>
