<svg width="40" height="40" viewBox="0 0 40 40" fill="black" xmlns="http://www.w3.org/2000/svg">
<path d="M0.482449 5.98101C1.49442 10.8701 4.31279 15.1977 8.37508 18.1002C12.4374 21.0028 17.4448 22.2667 22.398 21.6398C27.3511 21.0128 31.8857 18.5412 35.0967 14.718C38.3078 10.8949 39.959 6.00153 39.7209 1.01453L35.7582 1.2037C35.9486 5.1933 34.6276 9.108 32.0588 12.1665C29.49 15.225 25.8623 17.2023 21.8998 17.7039C17.9373 18.2054 13.9313 17.1943 10.6815 14.8723C7.43165 12.5502 5.17695 9.08813 4.36738 5.17688L0.482449 5.98101Z" fill="black"/>
<path d="M31.8103 39.843C27.0097 38.4688 22.904 35.3347 20.3128 31.0663C17.7216 26.7979 16.8355 21.7093 17.8314 16.8162C18.8273 11.9232 21.6319 7.58577 25.6854 4.66979C29.7389 1.75382 34.743 0.473864 39.6987 1.08543L39.2128 5.02284C35.2482 4.53359 31.2449 5.55756 28.0021 7.89033C24.7594 10.2231 22.5157 13.6931 21.7189 17.6075C20.9222 21.5219 21.6311 25.5928 23.7041 29.0075C25.7771 32.4223 29.0616 34.9295 32.9021 36.0289L31.8103 39.843Z" fill="black"/>
<path d="M0.482422 5.98116C1.49439 10.8702 4.31276 15.1979 8.37505 18.1004C12.4373 21.0029 17.4448 22.2668 22.3979 21.6399C27.3511 21.013 31.8857 18.5413 35.0967 14.7182C38.3077 10.8951 39.959 6.00168 39.7209 1.01467L35.7582 1.20384C35.9486 5.19345 34.6276 9.10815 32.0588 12.1667C29.49 15.2252 25.8623 17.2025 21.8998 17.704C17.9372 18.2056 13.9313 17.1944 10.6815 14.8724C7.43163 12.5504 5.17693 9.08827 4.36735 5.17703L0.482422 5.98116Z" fill="black"/>
<path d="M31.8102 39.843C27.0097 38.4688 22.904 35.3347 20.3127 31.0663C17.7215 26.7979 16.8354 21.7093 17.8313 16.8162C18.8272 11.9232 21.6318 7.58577 25.6853 4.6698C29.7388 1.75382 34.7429 0.473864 39.6986 1.08543L39.2127 5.02284C35.2481 4.53359 31.2448 5.55756 28.0021 7.89034C24.7593 10.2231 22.5156 13.6931 21.7189 17.6075C20.9221 21.5219 21.631 25.5928 23.704 29.0075C25.777 32.4223 29.0616 34.9295 32.902 36.0289L31.8102 39.843Z" fill="black"/>
<circle cx="6.81367" cy="33.5117" r="6.33124" fill="black"/>
</svg>
